# xmcd CD database file
#
# Track frame offsets:
#	150
#	18505
#	40802
#	63542
#	72120
#	91467
#	104195
#	117027
#	131242
#	148742
#	170830
#	188952
#	206517
#	218427
#	233795
#
# Disc length: 3342 seconds
#
# Revision: 0
# Processed by: cddbd v1.5.1PL0 Copyright (c) Steve Scherf et al.
# Submitted via: CDex 1.60beta1
#
DISCID=e40d0c0f
DTITLE=Pamela Blake - Two For The Road
DYEAR=0
DGENRE=Jazz
TTITLE0=Two For The Road
TTITLE1=Don't Cry For Me, Argentina
TTITLE2=I Wish You Love
TTITLE3=Blame It On My Youth
TTITLE4=My One And Only Love
TTITLE5=Suppertime
TTITLE6=Think Of Me
TTITLE7=All The Things You Are
TTITLE8=What'll I Do
TTITLE9=Night And Day
TTITLE10=Misty
TTITLE11=Treat Me Rough
TTITLE12=Hey There
TTITLE13=More Than You Know
TTITLE14=I Will Wait For You
EXTD=YEAR: 0
EXTT0=
EXTT1=
EXTT2=
EXTT3=
EXTT4=
EXTT5=
EXTT6=
EXTT7=
EXTT8=
EXTT9=
EXTT10=
EXTT11=
EXTT12=
EXTT13=
EXTT14=
PLAYORDER=
